<?xml version="1.0" encoding="utf-8"?>
<!-- Generator: Adobe Illustrator 21.0.2, SVG Export Plug-In . SVG Version: 6.00 Build 0)  -->
<svg version="1.1" id="Layer_1" xmlns="http://www.w3.org/2000/svg" xmlns:xlink="http://www.w3.org/1999/xlink" x="0px" y="0px"
	 viewBox="0 0 400 200" style="enable-background:new 0 0 400 200;" xml:space="preserve">
<style type="text/css">
	.st0{fill:#CECECE;}
	.st1{fill:#989898;}
	.st2{fill:none;stroke:#585858;stroke-miterlimit:10;}
	.st3{fill:none;stroke:#585858;stroke-miterlimit:10;stroke-dasharray:3.0371,3.0371;}
	.st4{fill:none;stroke:#585858;stroke-miterlimit:10;stroke-dasharray:3.0233,3.0233;}
	.st5{fill:none;stroke:#585858;stroke-miterlimit:10;stroke-dasharray:2.9111,2.9111;}
	.st6{fill:none;stroke:#585858;stroke-miterlimit:10;stroke-dasharray:3.1481,3.1481;}
	.st7{fill:none;stroke:#585858;stroke-miterlimit:10;stroke-dasharray:2.7921,2.7921;}
	.st8{fill:none;stroke:#585858;stroke-miterlimit:10;stroke-dasharray:2.6667,2.6667;}
	.st9{fill:none;stroke:#585858;stroke-miterlimit:10;stroke-dasharray:2.7778,2.7778;}
	.st10{fill:none;stroke:#585858;stroke-miterlimit:10;stroke-dasharray:3.1178,3.1178;}
	.st11{fill:none;stroke:#585858;stroke-miterlimit:10;stroke-dasharray:3.5438,3.5438;}
	.st12{fill:none;stroke:#585858;stroke-miterlimit:10;stroke-dasharray:2.985,2.985;}
	.st13{fill:none;stroke:#CECECE;stroke-width:0.9969;stroke-miterlimit:10;}
	.st14{fill:none;stroke:#CECECE;stroke-miterlimit:10;}
	.st15{fill:none;stroke:#CECECE;stroke-width:1.0057;stroke-miterlimit:10;}
	.st16{fill:#585858;}
	.st17{fill:none;stroke:#585858;stroke-width:1.0017;stroke-miterlimit:10;stroke-dasharray:3.0052;}
</style>
<polygon class="st0" points="207,93.5 207,104.5 74,104.5 74,76.5 117.6,76.5 129.4,93.5 "/>
<rect x="199" y="93.5" class="st1" width="8" height="95.5"/>
<g>
	<g>
		<line class="st2" x1="207" y1="104" x2="207" y2="105.5"/>
		<line class="st3" x1="207" y1="108.5" x2="207" y2="186"/>
		<polyline class="st2" points="207,187.5 207,189 205.5,189 		"/>
		<line class="st4" x1="202.5" y1="189" x2="77.1" y2="189"/>
		<polyline class="st2" points="75.5,189 74,189 74,187.5 		"/>
		<line class="st3" x1="74" y1="184.5" x2="74" y2="107"/>
		<line class="st2" x1="74" y1="105.5" x2="74" y2="104"/>
	</g>
</g>
<g>
	<g>
		<polyline class="st2" points="190.1,147.7 190.1,149.2 188.6,149.2 		"/>
		<line class="st5" x1="185.7" y1="149.2" x2="146.4" y2="149.2"/>
		<polyline class="st2" points="144.9,149.2 143.4,149.2 143.4,147.7 		"/>
		<line class="st6" x1="143.4" y1="144.5" x2="143.4" y2="120.9"/>
		<polyline class="st2" points="143.4,119.3 143.4,117.8 144.9,117.8 		"/>
		<line class="st5" x1="147.8" y1="117.8" x2="187.1" y2="117.8"/>
		<polyline class="st2" points="188.6,117.8 190.1,117.8 190.1,119.3 		"/>
		<line class="st6" x1="190.1" y1="122.5" x2="190.1" y2="146.1"/>
	</g>
</g>
<g>
	<g>
		<line class="st2" x1="190.1" y1="127.7" x2="191.6" y2="127.7"/>
		<line class="st7" x1="194.4" y1="127.7" x2="204.1" y2="127.7"/>
		<line class="st2" x1="205.5" y1="127.7" x2="207" y2="127.7"/>
	</g>
</g>
<g>
	<g>
		<line class="st2" x1="190.1" y1="137.7" x2="191.6" y2="137.7"/>
		<line class="st7" x1="194.4" y1="137.7" x2="204.1" y2="137.7"/>
		<line class="st2" x1="205.5" y1="137.7" x2="207" y2="137.7"/>
	</g>
</g>
<g>
	<g>
		<polyline class="st2" points="205.5,93.5 207,93.5 207,95 		"/>
		<line class="st8" x1="207" y1="97.7" x2="207" y2="101.7"/>
		<polyline class="st2" points="207,103 207,104.5 205.5,104.5 		"/>
		<line class="st4" x1="202.5" y1="104.5" x2="77.1" y2="104.5"/>
		<polyline class="st2" points="75.5,104.5 74,104.5 74,103 		"/>
		<line class="st9" x1="74" y1="100.3" x2="74" y2="79.4"/>
		<polyline class="st2" points="74,78 74,76.5 75.5,76.5 		"/>
		<line class="st10" x1="78.7" y1="76.5" x2="114.5" y2="76.5"/>
		<polyline class="st2" points="116.1,76.5 117.6,76.5 118.4,77.8 		"/>
		<line class="st11" x1="120.5" y1="80.7" x2="127.5" y2="90.9"/>
		<polyline class="st2" points="128.6,92.3 129.4,93.5 130.9,93.5 		"/>
		<line class="st12" x1="133.9" y1="93.5" x2="204.1" y2="93.5"/>
	</g>
</g>
<g>
	<path class="st0" d="M159.6,131.4c0-0.9,0.1-1.7,0.4-2.4c0.3-0.7,0.7-1.3,1.2-1.9c0.5-0.5,1.2-0.9,1.9-1.2c0.8-0.3,1.6-0.4,2.6-0.4
		c0.7,0,1.4,0.1,2.1,0.3c0.7,0.2,1.2,0.5,1.7,0.8s0.9,0.8,1.2,1.4c0.3,0.6,0.4,1.2,0.4,2c0,0.5-0.1,1-0.2,1.4
		c-0.1,0.4-0.3,0.8-0.6,1.1c-0.2,0.3-0.5,0.6-0.8,0.9c-0.3,0.3-0.6,0.6-0.9,0.8c-0.3,0.2-0.6,0.5-1,0.8c-0.3,0.3-0.6,0.6-0.9,1
		c-0.3,0.4-0.5,0.8-0.6,1.3s-0.2,1.1-0.2,1.9H165c0-0.7,0.1-1.2,0.2-1.7c0.1-0.5,0.3-1,0.5-1.3s0.5-0.8,0.8-1.1s0.6-0.6,0.9-0.9
		s0.7-0.6,1-0.9c0.3-0.3,0.6-0.6,0.9-1c0.3-0.3,0.5-0.7,0.6-1.1s0.2-0.8,0.2-1.2c0-0.6-0.1-1.1-0.4-1.6s-0.6-0.8-1-1.1
		c-0.4-0.3-0.9-0.5-1.4-0.6s-1.1-0.2-1.7-0.2c-0.8,0-1.6,0.1-2.2,0.4s-1.2,0.6-1.6,1c-0.4,0.4-0.7,1-0.9,1.6s-0.3,1.3-0.3,2h-1
		V131.4z M164.9,141h1.4v2.5h-1.4V141z"/>
</g>
<g>
	<rect x="230.5" y="77.5" class="st13" width="36" height="24"/>
	<polygon class="st14" points="234.3,96.4 243.5,82.6 250.8,91.3 254.4,86.9 262.7,96.5 	"/>
	<circle class="st15" cx="259.5" cy="83.5" r="2"/>
	<path class="st14" d="M229.9,66.4"/>
	<line class="st14" x1="267" y1="66.5" x2="246" y2="66.5"/>
	<line class="st14" x1="293" y1="66.5" x2="306" y2="66.5"/>
	<line class="st14" x1="272" y1="77.5" x2="306" y2="77.5"/>
	<line class="st14" x1="272" y1="88.5" x2="306" y2="88.5"/>
	<line class="st14" x1="272" y1="100.5" x2="306" y2="100.5"/>
	<path class="st0" d="M237.6,68h-6.2c-0.8,0-1.4-0.6-1.4-1.4v-0.2c0-0.8,0.6-1.4,1.4-1.4h6.2c0.8,0,1.4,0.6,1.4,1.4v0.2
		C239,67.4,238.4,68,237.6,68z"/>
	<rect x="230.5" y="121.5" class="st13" width="36" height="24"/>
	<polygon class="st14" points="234.3,141.4 243.5,127.6 250.8,136.3 254.4,131.9 262.7,141.5 	"/>
	<circle class="st15" cx="259.5" cy="127.5" r="2"/>
	<path class="st14" d="M229.9,110.8"/>
	<line class="st14" x1="267" y1="110.5" x2="246" y2="110.5"/>
	<line class="st14" x1="293" y1="110.5" x2="306" y2="110.5"/>
	<line class="st14" x1="272" y1="121.5" x2="306" y2="121.5"/>
	<line class="st14" x1="272" y1="133.5" x2="306" y2="133.5"/>
	<line class="st14" x1="272" y1="145.5" x2="306" y2="145.5"/>
	<path class="st0" d="M237.6,112h-6.2c-0.8,0-1.4-0.6-1.4-1.4v-0.2c0-0.8,0.6-1.4,1.4-1.4h6.2c0.8,0,1.4,0.6,1.4,1.4v0.2
		C239,111.4,238.4,112,237.6,112z"/>
	<circle class="st0" cx="233" cy="157" r="2"/>
	<circle class="st0" cx="233" cy="167" r="2"/>
	<line class="st14" x1="246" y1="157.5" x2="293" y2="157.5"/>
	<line class="st14" x1="246" y1="167.5" x2="293" y2="167.5"/>
	<line class="st14" x1="299" y1="157.5" x2="306" y2="157.5"/>
	<line class="st14" x1="299" y1="167.5" x2="306" y2="167.5"/>
</g>
<rect x="10" y="188.2" class="st16" width="380" height="4"/>
<image style="overflow:visible;" width="1049" height="244" xlink:href="30704771_2053441094931409_7052420928067600384_n.png"  transform="matrix(1 0 0 1 -325.5 314)">
</image>
<rect x="207" y="44.5" class="st17" width="122" height="144.5"/>
</svg>
