<?xml version="1.0" encoding="utf-8"?>
<!-- Generator: Adobe Illustrator 21.0.2, SVG Export Plug-In . SVG Version: 6.00 Build 0)  -->
<svg version="1.1" id="Layer_1" xmlns="http://www.w3.org/2000/svg" xmlns:xlink="http://www.w3.org/1999/xlink" x="0px" y="0px"
	 viewBox="0 0 400 200" style="enable-background:new 0 0 400 200;" xml:space="preserve">
<style type="text/css">
	.rst0{fill:#FCFCFC;}
	.rst1{fill:none;stroke:#585858;stroke-width:0.9863;stroke-linejoin:round;stroke-miterlimit:10;}
	.rst2{fill:none;stroke:#585858;stroke-linejoin:round;stroke-miterlimit:10;}
	.rst3{fill:#F44336;}
	.rst4{fill:none;stroke:#989898;stroke-miterlimit:10;}
	.rst5{fill:none;stroke:#F44336;stroke-miterlimit:10;}
	.rst6{fill:#585858;}
	.rst7{fill:#CECECE;stroke:#585858;stroke-width:0.9863;stroke-linejoin:round;stroke-miterlimit:10;}
	.rst8{fill:#989898;}
</style>
<rect class="rst0" width="400" height="200"/>
<polygon class="rst1" points="208.5,105.5 208.3,188.5 76.5,188.5 76.5,105.5 "/>
<rect x="208.5" y="43.5" class="rst2" width="122" height="145"/>
<g>
	<g>
		<path class="rst3" d="M141.8,162.4c1.4,0,2.5,1.1,2.5,2.5s-1.1,2.5-2.5,2.5s-2.5-1.1-2.5-2.5S140.4,162.4,141.8,162.4z M143.8,151
			c0,0.5-0.1,0.9-0.1,1.4l-0.9,7c-0.1,0.9-0.5,1.1-1.4,1.1s-1.3-0.2-1.4-1.1l-0.9-7c-0.1-0.5-0.1-1-0.1-1.4l0-3.4
			c0-1.3,1-2.3,2.2-2.4c1.7-0.1,2.8,0.7,2.8,2.3v3.5H143.8z"/>
	</g>
	<polygon class="rst4" points="141.7,125.1 114.3,172.5 169,172.5 	"/>
</g>
<g>
	<rect x="243.9" y="63.6" transform="matrix(0.7071 -0.7071 0.7071 0.7071 17.7572 195.1122)" class="rst3" width="1" height="25"/>
	<rect x="232.1" y="75.4" transform="matrix(0.7071 -0.7071 0.7071 0.7071 17.9997 195.2126)" class="rst3" width="25" height="1"/>
</g>
<rect x="225.5" y="57.5" class="rst4" width="40" height="39"/>
<line class="rst5" x1="280" y1="59.5" x2="317" y2="59.5"/>
<line class="rst5" x1="280" y1="77.5" x2="317" y2="77.5"/>
<line class="rst5" x1="223" y1="115.5" x2="317" y2="115.5"/>
<line class="rst5" x1="223" y1="132.5" x2="317" y2="132.5"/>
<line class="rst5" x1="223" y1="150.5" x2="317" y2="150.5"/>
<line class="rst5" x1="223" y1="167.5" x2="317" y2="167.5"/>
<line class="rst5" x1="280" y1="95.5" x2="317" y2="95.5"/>
<rect x="10" y="188" class="rst6" width="380" height="4"/>
<polygon class="rst7" points="208.5,94.5 208.5,105.5 76.5,105.5 76.5,77.5 119.7,77.5 131.5,94.5 "/>
<rect x="200" y="94.5" class="rst8" width="8" height="93.5"/>
<polygon class="rst1" points="208.5,94.5 208.5,105.5 76.5,105.5 76.5,77.5 119.7,77.5 131.5,94.5 "/>
</svg>
