<?xml version="1.0"?>
<svg xmlns="http://www.w3.org/2000/svg" xmlns:xlink="http://www.w3.org/1999/xlink" version="1.1" id="Capa_1" x="0px" y="0px" viewBox="0 0 60 60" style="enable-background:new 0 0 60 60;" xml:space="preserve" width="512px" height="512px" class=""><g><g>
	<g>
		<g>
			<rect x="1" y="4" style="fill:#ECF0F1;" width="55" height="42" data-original="#ECF0F1" class=""/>
			<path style="fill:#7E7E7E" d="M57,47H0V3h57V47z M2,45h53V5H2V45z" data-original="#545E73" class="" data-old_color="#7e7e7e"/>
		</g>
		<g>
			<rect x="5" y="8" style="fill:#7E7E7E" width="47" height="34" data-original="#545E73" class="" data-old_color="#7e7e7e"/>
			<path style="fill:#ECF0F1;" d="M53,43H4V7h49V43z M6,41h45V9H6V41z" data-original="#ECF0F1" class=""/>
		</g>
		<circle style="fill:#F3D55A;" cx="15" cy="16.569" r="4.569" data-original="#F3D55A" class=""/>
		<polygon style="fill:#007D71" points="51,32.111 50,31 38,20 27.5,31.5 32.983,36.983 37,41 51,41   " data-original="#11A085" class="" data-old_color="#007d71"/>
		<polygon style="fill:#009688" points="6,41 37,41 32.983,36.983 22.017,26.017 6,40   " data-original="#26B999" class="" data-old_color="#26B999"/>
	</g>
</g></g> </svg>
