<?xml version="1.0"?>
<svg viewBox="0 0 135 61" width="135" height="61" xmlns="http://www.w3.org/2000/svg">
<rect id="square_main" x="9.287" y="9.157" transform="matrix(0.7071 0.7071 -0.7071 0.7071 30.4085 -12.6714)" fill="#2157AD" width="42.426" height="42.426"/>
<polygon id="square_one" fill="#3C66AD" points="35.5,60.371 5.5,30.371 35.5,0.371 83.02,30.371 "/>
<polygon id="square_two" fill="#5778AD" points="40.5,60.371 10.5,30.371 40.5,0.371 108.061,30.371 "/>
<g>
	<path fill="#f5f6f7" d="M36.294,34.618c-0.192,0.479-0.392,0.968-0.6,1.464s-0.376,0.889-0.504,1.176
		c-0.864,2.049-1.876,3.553-3.036,4.513s-2.54,1.439-4.14,1.439c-0.849,0-1.616-0.132-2.304-0.396
		c-0.688-0.265-1.276-0.641-1.764-1.128c-0.488-0.489-0.868-1.073-1.14-1.753c-0.272-0.68-0.408-1.436-0.408-2.268
		c0-1.184,0.252-2.308,0.756-3.372c0.504-1.063,1.184-1.995,2.04-2.796c0.856-0.8,1.852-1.432,2.988-1.896
		c1.136-0.464,2.336-0.696,3.6-0.696c0.704,0,1.248,0.128,1.632,0.384c0.384,0.256,0.576,0.616,0.576,1.08
		c0,0.528-0.188,0.912-0.564,1.151c-0.376,0.24-1.036,0.385-1.98,0.433c-0.816,0.048-1.572,0.224-2.268,0.528
		c-0.696,0.304-1.3,0.699-1.812,1.188c-0.513,0.488-0.917,1.053-1.212,1.691c-0.296,0.641-0.444,1.32-0.444,2.041
		c0,0.832,0.228,1.492,0.684,1.979c0.456,0.488,1.083,0.732,1.884,0.732c0.864,0,1.664-0.4,2.4-1.2
		c0.224-0.225,0.439-0.508,0.648-0.852c0.208-0.344,0.448-0.788,0.72-1.332c0.176-0.32,0.344-0.66,0.504-1.021
		s0.312-0.724,0.456-1.092l4.056-10.008h-2.28h-0.312c-0.88-0.032-1.32-0.416-1.32-1.152c0-0.464,0.184-0.855,0.552-1.176
		c0.368-0.32,0.808-0.48,1.32-0.48h0.312h7.68h0.312c0.879,0.032,1.32,0.416,1.32,1.152c0,0.464-0.18,0.856-0.54,1.176
		c-0.36,0.32-0.796,0.48-1.308,0.48h-0.312h-2.136L36.294,34.618z"/>
	<path fill="#f5f6f7" d="M42.39,32.386c-0.192,0.479-0.4,0.819-0.624,1.02s-0.496,0.3-0.816,0.3c-0.32,0-0.6-0.104-0.84-0.312
		c-0.24-0.208-0.36-0.465-0.36-0.769c0-0.128,0.016-0.247,0.048-0.36c0.032-0.111,0.104-0.303,0.216-0.576l1.32-3.263
		c0.176-0.432,0.364-0.736,0.564-0.912c0.2-0.176,0.459-0.264,0.78-0.264c0.592,0,0.952,0.272,1.08,0.816l0.096,0.36
		c0.048,0.192,0.116,0.312,0.204,0.36s0.316,0.072,0.684,0.072h2.76h0.288c0.832,0,1.248,0.36,1.248,1.08
		c0,0.256-0.084,0.516-0.252,0.78c-0.168,0.264-0.364,0.444-0.588,0.54c-0.112,0.064-0.24,0.104-0.384,0.12
		c-0.144,0.017-0.384,0.032-0.72,0.048l-0.144,0.096c-0.176,0.177-0.324,0.324-0.444,0.444s-0.228,0.232-0.324,0.337
		c-0.096,0.104-0.18,0.207-0.252,0.312c-0.072,0.104-0.156,0.22-0.252,0.348c-0.224,0.32-0.376,0.572-0.456,0.757
		c-0.08,0.184-0.12,0.363-0.12,0.539c0,0.656,0.36,0.984,1.08,0.984h1.464h0.288c0.8,0.032,1.2,0.384,1.2,1.056
		c0,0.417-0.164,0.772-0.492,1.068s-0.724,0.444-1.188,0.444h-0.288h-2.304c-0.08,0-0.2-0.016-0.36-0.049
		c-0.16-0.031-0.336-0.072-0.528-0.119c-0.528-0.145-0.956-0.469-1.284-0.973c-0.328-0.504-0.492-1.092-0.492-1.764
		c0-0.544,0.136-1.076,0.408-1.596c0.271-0.52,0.735-1.148,1.392-1.885h-1.224L42.39,32.386z"/>
	<path fill="#f5f6f7" d="M53.814,35.242h3.48h0.288c0.8,0.032,1.2,0.384,1.2,1.056c0,0.417-0.168,0.772-0.504,1.068
		c-0.336,0.296-0.736,0.444-1.2,0.444H56.79h-3.312c-0.592,0-1.064-0.045-1.416-0.133c-0.352-0.088-0.688-0.244-1.008-0.468
		c-0.912-0.688-1.368-1.696-1.368-3.024c0-0.752,0.14-1.459,0.42-2.123c0.28-0.664,0.656-1.249,1.128-1.752
		c0.472-0.504,1.024-0.9,1.656-1.188c0.632-0.288,1.3-0.432,2.004-0.432c1.008,0,1.82,0.268,2.436,0.804
		c0.616,0.536,0.924,1.244,0.924,2.124c0,0.56-0.14,1.06-0.42,1.5c-0.28,0.44-0.66,0.765-1.14,0.972
		c-0.128,0.064-0.252,0.112-0.372,0.145c-0.12,0.031-0.249,0.06-0.384,0.084c-0.136,0.023-0.292,0.04-0.468,0.048
		c-0.176,0.009-0.384,0.012-0.624,0.012h-2.352C52.494,34.954,52.934,35.242,53.814,35.242z M54.342,32.242
		c0.432,0,0.744-0.044,0.936-0.133c0.192-0.087,0.288-0.219,0.288-0.396c0-0.176-0.076-0.327-0.228-0.456
		c-0.152-0.128-0.34-0.192-0.564-0.192c-0.736,0-1.312,0.393-1.728,1.176H54.342z"/>
	<path fill="#f5f6f7" d="M69.582,35.242h0.288c0.8,0.032,1.199,0.384,1.199,1.056c0,0.417-0.168,0.772-0.504,1.068
		s-0.736,0.444-1.2,0.444h-0.287h-2.425c-0.479,0-0.884-0.145-1.212-0.433s-0.491-0.64-0.491-1.056c0-0.176,0.023-0.344,0.071-0.504
		s0.136-0.408,0.265-0.744l1.031-2.544c0.112-0.272,0.168-0.488,0.168-0.648c0-0.192-0.08-0.352-0.239-0.479
		c-0.16-0.128-0.36-0.192-0.601-0.192c-0.479,0-0.92,0.257-1.319,0.769c-0.272,0.352-0.48,0.703-0.624,1.056l-1.368,3.384
		l-0.145,0.313c-0.368,0.88-0.944,1.32-1.728,1.32c-0.336,0-0.62-0.105-0.853-0.313c-0.232-0.208-0.348-0.473-0.348-0.792
		c0-0.256,0.064-0.528,0.192-0.816l0.119-0.312l2.377-5.833c0.287-0.768,0.808-1.152,1.56-1.152c0.592,0,1.016,0.272,1.271,0.816
		c0.48-0.368,0.893-0.62,1.236-0.756c0.344-0.136,0.724-0.204,1.14-0.204c0.752,0,1.364,0.208,1.837,0.624
		c0.472,0.417,0.708,0.952,0.708,1.608c0,0.176-0.021,0.364-0.061,0.564s-0.1,0.404-0.18,0.611l-1.296,3.145H69.582z"/>
	<path fill="#f5f6f7" d="M80.934,35.242h0.264c0.8,0.032,1.2,0.384,1.2,1.056c0,0.417-0.164,0.772-0.492,1.068
		s-0.724,0.444-1.188,0.444H80.43h-1.584c-0.593,0-1.041-0.248-1.345-0.744c-0.496,0.496-0.952,0.744-1.367,0.744h-1.872
		c-0.385,0-0.74-0.084-1.068-0.252s-0.616-0.396-0.864-0.685s-0.44-0.628-0.576-1.021c-0.136-0.391-0.204-0.819-0.204-1.283
		c0-0.768,0.141-1.504,0.421-2.209c0.279-0.703,0.651-1.327,1.115-1.871s0.996-0.98,1.597-1.308c0.6-0.328,1.228-0.492,1.884-0.492
		c0.943,0,1.695,0.336,2.256,1.008l2.616-6.408l0.12-0.312c0.399-0.896,0.983-1.344,1.752-1.344c0.336,0,0.619,0.108,0.852,0.324
		c0.231,0.216,0.349,0.484,0.349,0.804c0,0.256-0.064,0.528-0.192,0.816l-0.12,0.312l-4.608,11.352H80.934z M77.693,32.505
		l0.072-0.191c0.063-0.129,0.096-0.272,0.096-0.433c0-0.224-0.104-0.42-0.313-0.588s-0.455-0.252-0.743-0.252
		c-0.305,0-0.604,0.096-0.9,0.288c-0.296,0.191-0.564,0.44-0.804,0.744c-0.24,0.305-0.433,0.648-0.576,1.031
		c-0.145,0.385-0.216,0.769-0.216,1.152c0,0.705,0.327,1.057,0.983,1.057h0.528c0.176,0,0.368-0.068,0.576-0.205
		c0.208-0.135,0.344-0.283,0.408-0.443L77.693,32.505z"/>
	<path fill="#f5f6f7" d="M85.386,37.713c-0.328-0.063-0.628-0.184-0.899-0.36c-0.497-0.336-0.885-0.787-1.164-1.355
		c-0.28-0.568-0.421-1.188-0.421-1.859c0-0.721,0.145-1.412,0.433-2.076s0.68-1.244,1.176-1.74s1.063-0.892,1.704-1.188
		c0.64-0.296,1.32-0.444,2.04-0.444c0.576,0,1.107,0.096,1.596,0.288s0.908,0.456,1.26,0.792c0.353,0.336,0.624,0.736,0.816,1.2
		c0.192,0.463,0.288,0.976,0.288,1.536c0,0.465-0.06,0.928-0.18,1.393c-0.12,0.464-0.288,0.904-0.504,1.32
		c-0.217,0.416-0.473,0.799-0.769,1.151s-0.62,0.64-0.972,0.864c-0.353,0.225-0.732,0.376-1.141,0.455
		c-0.407,0.081-0.979,0.121-1.716,0.121C86.229,37.81,85.714,37.778,85.386,37.713z M89.046,31.591
		c-0.256-0.271-0.584-0.406-0.984-0.406c-0.304,0-0.596,0.076-0.876,0.227s-0.527,0.354-0.744,0.608
		c-0.216,0.254-0.388,0.549-0.516,0.883s-0.192,0.676-0.192,1.025c0,0.875,0.496,1.313,1.488,1.313c0.288,0,0.512-0.016,0.672-0.048
		c0.16-0.031,0.313-0.11,0.456-0.238c0.304-0.223,0.561-0.561,0.769-1.015c0.207-0.453,0.312-0.895,0.312-1.324
		C89.43,32.204,89.302,31.862,89.046,31.591z"/>
	<path fill="#f5f6f7" d="M97.325,35.242h0.288c0.8,0.032,1.2,0.384,1.2,1.056c0,0.417-0.168,0.772-0.504,1.068
		s-0.736,0.444-1.2,0.444h-0.288h-2.088c-0.561,0-1.017-0.133-1.368-0.396s-0.528-0.611-0.528-1.044
		c0-0.159,0.032-0.353,0.097-0.576c0.063-0.224,0.151-0.464,0.264-0.72l4.729-11.64l0.119-0.312c0.368-0.88,0.944-1.32,1.729-1.32
		c0.32,0,0.596,0.108,0.828,0.324c0.231,0.216,0.348,0.477,0.348,0.78c0,0.24-0.056,0.512-0.168,0.816l-0.144,0.312l-4.536,11.208
		H97.325z"/>
	<path fill="#f5f6f7" d="M103.997,35.242h0.287c0.8,0.032,1.2,0.384,1.2,1.056c0,0.417-0.168,0.772-0.504,1.068
		s-0.736,0.444-1.2,0.444h-0.288h-1.848c-0.72,0-1.271-0.137-1.656-0.408c-0.384-0.271-0.576-0.664-0.576-1.176
		c0-0.16,0.017-0.301,0.049-0.42c0.031-0.121,0.096-0.309,0.191-0.564l1.944-4.752l0.12-0.312c0.367-0.88,0.951-1.32,1.752-1.32
		c0.336,0,0.62,0.108,0.852,0.324c0.232,0.216,0.349,0.484,0.349,0.804c0,0.24-0.064,0.504-0.192,0.792l-0.12,0.336l-1.68,4.128
		H103.997z M103.085,27.874c-0.32-0.32-0.48-0.704-0.48-1.152c0-0.448,0.156-0.832,0.468-1.152c0.313-0.32,0.692-0.48,1.141-0.48
		c0.464,0,0.855,0.16,1.176,0.48c0.319,0.32,0.479,0.712,0.479,1.176c0,0.448-0.155,0.828-0.468,1.14
		c-0.312,0.312-0.7,0.468-1.164,0.468C103.788,28.354,103.404,28.194,103.085,27.874z"/>
	<path fill="#f5f6f7" d="M113.501,35.242h0.264c0.8,0.032,1.2,0.384,1.2,1.056c0,0.417-0.164,0.772-0.492,1.068
		s-0.724,0.444-1.188,0.444h-0.288h-5.472c-0.48,0-0.864-0.124-1.152-0.373c-0.288-0.248-0.433-0.579-0.433-0.996
		c0-0.223,0.064-0.436,0.192-0.635c0.128-0.201,0.328-0.437,0.6-0.709l3.841-3.695l-1.32,0.048c-0.08,0-0.185,0.009-0.313,0.024
		c-0.832,0-1.247-0.36-1.247-1.081c0-0.432,0.168-0.796,0.504-1.092s0.743-0.444,1.224-0.444h0.312h3.648
		c1.072,0,1.608,0.456,1.608,1.368c0,0.48-0.249,0.96-0.744,1.44l-3.696,3.576H113.501z"/>
	<path fill="#f5f6f7" d="M119.765,35.242h3.479h0.288c0.8,0.032,1.2,0.384,1.2,1.056c0,0.417-0.168,0.772-0.504,1.068
		s-0.736,0.444-1.2,0.444h-0.288h-3.313c-0.592,0-1.063-0.045-1.415-0.133c-0.353-0.088-0.688-0.244-1.009-0.468
		c-0.912-0.688-1.368-1.696-1.368-3.024c0-0.752,0.141-1.459,0.421-2.123c0.279-0.664,0.655-1.249,1.128-1.752
		c0.472-0.504,1.023-0.9,1.655-1.188s1.3-0.432,2.004-0.432c1.009,0,1.82,0.268,2.437,0.804c0.615,0.536,0.924,1.244,0.924,2.124
		c0,0.56-0.14,1.06-0.42,1.5s-0.66,0.765-1.14,0.972c-0.129,0.064-0.252,0.112-0.372,0.145c-0.12,0.031-0.248,0.06-0.384,0.084
		c-0.137,0.023-0.293,0.04-0.469,0.048c-0.176,0.009-0.384,0.012-0.624,0.012h-2.352C118.444,34.954,118.884,35.242,119.765,35.242z
		 M120.292,32.242c0.433,0,0.744-0.044,0.937-0.133c0.191-0.087,0.288-0.219,0.288-0.396c0-0.176-0.076-0.327-0.229-0.456
		c-0.152-0.128-0.34-0.192-0.563-0.192c-0.736,0-1.313,0.393-1.729,1.176H120.292z"/>
	<path fill="#f5f6f7" d="M127.78,32.386c-0.191,0.479-0.4,0.819-0.624,1.02s-0.496,0.3-0.815,0.3c-0.32,0-0.601-0.104-0.841-0.312
		c-0.239-0.208-0.359-0.465-0.359-0.769c0-0.128,0.016-0.247,0.048-0.36c0.032-0.111,0.104-0.303,0.216-0.576l1.32-3.263
		c0.176-0.432,0.363-0.736,0.563-0.912c0.2-0.176,0.46-0.264,0.78-0.264c0.592,0,0.952,0.272,1.08,0.816l0.096,0.36
		c0.048,0.192,0.116,0.312,0.204,0.36s0.315,0.072,0.685,0.072h2.76h0.288c0.831,0,1.248,0.36,1.248,1.08
		c0,0.256-0.084,0.516-0.252,0.78c-0.168,0.264-0.364,0.444-0.588,0.54c-0.112,0.064-0.24,0.104-0.385,0.12
		c-0.144,0.017-0.384,0.032-0.72,0.048l-0.144,0.096c-0.177,0.177-0.324,0.324-0.444,0.444s-0.229,0.232-0.324,0.337
		c-0.096,0.104-0.18,0.207-0.252,0.312s-0.156,0.22-0.252,0.348c-0.225,0.32-0.376,0.572-0.456,0.757
		c-0.08,0.184-0.12,0.363-0.12,0.539c0,0.656,0.36,0.984,1.08,0.984h1.464h0.288c0.8,0.032,1.2,0.384,1.2,1.056
		c0,0.417-0.164,0.772-0.492,1.068s-0.724,0.444-1.188,0.444h-0.288h-2.305c-0.08,0-0.2-0.016-0.359-0.049
		c-0.16-0.031-0.336-0.072-0.528-0.119c-0.528-0.145-0.956-0.469-1.284-0.973s-0.491-1.092-0.491-1.764
		c0-0.544,0.136-1.076,0.407-1.596c0.272-0.52,0.736-1.148,1.393-1.885h-1.225L127.78,32.386z"/>
</g>
</svg>