<?xml version="1.0" encoding="utf-8"?>
<!-- Generator: Adobe Illustrator 21.0.2, SVG Export Plug-In . SVG Version: 6.00 Build 0)  -->
<svg version="1.1" id="Layer_1" xmlns="http://www.w3.org/2000/svg" xmlns:xlink="http://www.w3.org/1999/xlink" x="0px" y="0px"
	 viewBox="0 0 280 40" style="enable-background:new 0 0 280 40;" xml:space="preserve">
<style type="text/css">
	.st0{display:none;}
	.st1{display:inline;fill:#29252C;}
	.st2{fill:#69F9F5;}
	.st3{fill:#FAF15D;}
	.st4{fill:#F9D00F;}
	.st5{fill:#03E5D4;}
	.st6{fill:#43F9F4;}
	.st7{fill:#33CCCC;}
	.st8{fill:#FFDD67;}
	.st9{fill:#B9E29F;}
	.st10{fill:#93D2FD;}
	.st11{fill:#F4E7D3;}
	.st12{fill:#F2F79A;}
	.st13{fill:#8FEF99;}
	.st14{fill:#A4CC36;}
	.st15{fill:#FC7070;}
	.st16{fill:#F98470;}
	.st17{fill:#F79F72;}
	.st18{fill:#EADB26;}
	.st19{fill:#F7A411;}
	.st20{fill:#F95959;}
</style>
<g class="st0">
	<rect x="-60" y="-180" class="st1" width="400" height="400"/>
</g>
<g>
	<polygon class="st2" points="16.9,26.4 11.2,23.1 16.9,19.8 	"/>
	<polygon class="st3" points="5.6,26.4 -0.1,23.1 5.6,19.8 	"/>
	<polygon class="st4" points="-0.1,16.5 5.6,19.8 -0.1,23.1 	"/>
	<polygon class="st3" points="5.6,19.8 -0.1,16.5 5.6,13.2 	"/>
	<polygon class="st5" points="5.6,13.2 -0.1,9.9 5.6,6.6 	"/>
	<polygon class="st6" points="-0.1,3.3 5.6,6.6 -0.1,9.9 	"/>
	<polygon class="st7" points="5.6,6.6 -0.1,3.3 5.6,0 	"/>
	<polygon class="st8" points="5.6,19.8 11.2,23.1 5.6,26.4 	"/>
	<polygon class="st8" points="5.6,13.2 11.2,16.5 5.6,19.8 	"/>
	<polygon class="st9" points="11.2,16.5 5.6,13.2 11.2,9.9 	"/>
	<polygon class="st2" points="5.6,6.6 11.2,9.9 5.6,13.2 	"/>
	<polygon class="st6" points="11.2,9.9 5.6,6.6 11.2,3.3 	"/>
	<polygon class="st5" points="5.6,0 11.2,3.3 5.6,6.6 	"/>
	<polygon class="st2" points="16.9,33 11.2,29.7 16.9,26.4 	"/>
	<line class="st10" x1="16.9" y1="26.4" x2="11.2" y2="29.7"/>
	<polygon class="st11" points="11.2,16.5 16.9,19.8 11.2,23.1 	"/>
	<polygon class="st12" points="16.9,19.8 11.2,16.5 16.9,13.2 	"/>
	<polygon class="st13" points="11.2,9.9 16.9,13.2 11.2,16.5 	"/>
	<polygon class="st14" points="16.9,13.2 11.2,9.9 16.9,6.6 	"/>
	<polygon class="st2" points="11.2,3.3 16.9,6.6 11.2,9.9 	"/>
	<polygon class="st7" points="16.9,33 11.2,29.7 11.2,36.3 16.9,39.6 22.6,36.3 22.6,29.7 	"/>
	<polygon class="st15" points="16.9,26.4 22.6,29.7 16.9,33 	"/>
	<polygon class="st16" points="22.6,29.7 16.9,26.4 22.6,23.1 	"/>
	<polygon class="st7" points="16.9,19.8 22.6,23.1 16.9,26.4 	"/>
	<polygon class="st17" points="16.9,19.8 22.6,23.1 16.9,26.4 	"/>
	<polygon class="st12" points="22.6,23.1 16.9,19.8 22.6,16.5 	"/>
	<polygon class="st3" points="16.9,13.2 22.6,16.5 16.9,19.8 	"/>
	<polygon class="st18" points="22.6,16.5 16.9,13.2 22.6,9.9 	"/>
	<polygon class="st19" points="16.9,6.6 22.6,9.9 16.9,13.2 	"/>
	<polygon class="st17" points="22.6,9.9 16.9,6.6 22.6,3.3 	"/>
	<polygon class="st8" points="22.6,16.5 28.2,19.8 22.6,23.1 	"/>
	<polygon class="st18" points="28.2,19.8 22.6,16.5 28.2,13.2 	"/>
	<polygon class="st8" points="22.6,9.9 28.2,13.2 22.6,16.5 	"/>
	<polygon class="st15" points="28.2,13.2 22.6,9.9 28.2,6.6 	"/>
	<polygon class="st16" points="22.6,3.3 28.2,6.6 22.6,9.9 	"/>
	<polygon class="st20" points="28.2,0 22.6,3.3 28.2,6.6 28.2,13.2 33.9,9.9 33.9,3.3 	"/>
	<polygon class="st6" points="11.2,23.1 16.9,26.4 11.2,29.7 	"/>
	<polygon class="st12" points="11.2,23.1 5.6,19.8 11.2,16.5 	"/>
	<polygon class="st4" points="33.9,16.5 33.9,16.5 28.2,13.2 28.2,19.8 22.6,23.1 28.2,26.4 33.9,23.1 33.9,16.5 	"/>
</g>
<path class="st11" d="M90,13h3.2l9.9,14.1V13h2.9v20h-2.3l-9.6-14.2L90,13z"/>
<path class="st11" d="M128.9,16c1.8-1.8,4.3-3,7.1-3c2.8,0,5.3,1.1,7.1,3c1.8,1.8,2.9,4.3,2.9,7c0,2.8-1.2,5.2-2.9,7
	c-1.8,1.8-4.3,3-7.1,3c-2.7,0-5.3-1.1-7.1-3c-1.8-1.8-2.9-4.3-2.9-7C126,20.2,127.2,17.8,128.9,16z M141.1,18
	c-1.3-1.3-3.1-2.1-5.1-2.1c-1.9,0-3.7,0.8-5,2.1c-1.3,1.3-2.1,3.1-2.1,5s0.8,3.8,2.1,5c1.3,1.3,3.1,2.1,5,2.1c1.9,0,3.8-0.8,5.1-2.1
	c1.3-1.3,2.1-3,2.1-5S142.3,19.2,141.1,18z"/>
<path class="st11" d="M166,13v20h-3V13H166z"/>
<path class="st11" d="M262.9,16c1.8-1.8,4.3-3,7.1-3c2.8,0,5.3,1.1,7.1,3c1.8,1.8,2.9,4.3,2.9,7c0,2.8-1.2,5.2-2.9,7
	c-1.8,1.8-4.3,3-7.1,3c-2.7,0-5.3-1.1-7.1-3c-1.8-1.8-2.9-4.3-2.9-7C260,20.2,261.2,17.8,262.9,16z M275.1,18
	c-1.3-1.3-3.1-2.1-5.1-2.1c-1.9,0-3.7,0.8-5,2.1c-1.3,1.3-2.1,3.1-2.1,5s0.8,3.8,2.1,5c1.3,1.3,3.1,2.1,5,2.1c1.9,0,3.8-0.8,5.1-2.1
	c1.3-1.3,2.1-3,2.1-5S276.3,19.2,275.1,18z"/>
<rect x="48.9" y="23" class="st11" width="2.8" height="10"/>
<path class="st11" d="M67,25.5c3.7-0.6,5.5-3.3,5.5-6.1c0-3.2-2.3-6.4-7-6.4H42v2.8h23.5c2.6,0,3.9,1.9,3.9,3.6
	c0,1.7-1.3,3.7-3.8,3.7h-4.9l9,9.9H74L67,25.5z"/>
<path class="st11" d="M114.8,13h-6.7l2.7,2.9h4c4.3,0,6.5,3.5,6.5,7c0,3.5-2.2,7-6.5,7h-3.9L108,33h6.8c6.1,0,9.2-5,9.2-10
	C124,18,120.9,13,114.8,13z"/>
<polygon class="st11" points="150.8,30.2 150.8,13 148,13 148,33 160,33 160,30.1 "/>
<path class="st11" d="M201.8,23.1h4.8c2.5,0,3.8-2,3.8-3.7c0-1.7-1.3-3.6-3.8-3.6H202h-3l0-2.8h7.7c4.6,0,6.9,3.2,6.9,6.4
	c0,2.8-1.8,5.5-5.4,6.1L215,33h-4.3L201.8,23.1z"/>
<path class="st11" d="M234.9,13H228l2.7,2.9h4.2c2.3,0,3.5,1.9,3.5,3.8c0,1.9-1.1,3.3-3.5,3.3l-7,0l0,10h2.7v-6.7h4.2
	c4.1,0,6.1-3.3,6.1-6.7C241,16.3,239,13,234.9,13z"/>
<path class="st11" d="M245.9,23.1h4.7c2.5,0,3.8-2,3.8-3.7c0-1.7-1.3-3.6-3.8-3.6H246h-3l0-2.8h7.7c4.6,0,6.9,3.2,6.9,6.4
	c0,2.8-1.8,5.5-5.4,6.1L259,33h-4.2L245.9,23.1z"/>
<g>
	<path class="st11" d="M78.8,30.1H88V33H76V13h12v2.9h-9.2v5.5h9v2.9h-9V30.1z"/>
</g>
<g>
	<path class="st11" d="M188.2,30.1h9.8V33h-13V13h12.8v2.9h-9.6v5.5h9.6v2.9h-9.6V30.1z"/>
</g>
<polygon class="st11" points="218,29.9 218,32.1 219.8,33.1 221.6,32.1 221.6,29.9 219.8,28.9 "/>
<polygon class="st11" points="183,13 169,13 171.8,15.9 178.8,15.9 169,29.7 169,33 170.1,33 183,33 180.2,30.1 172.2,30.1 
	183,14.9 "/>
</svg>
